<svg xmlns="http://www.w3.org/2000/svg" width="35" height="20" viewBox="0 0 35 20">
    <g fill="none">
        <path fill="#FFF" d="M30.276.222l-9.94 18.445c-.111.206-.034.462.171.573.062.033.13.05.2.05h3.854c.155 0 .298-.085.372-.222L34.873.623c.111-.205.034-.462-.171-.572-.062-.034-.13-.051-.2-.051h-3.854c-.155 0-.298.085-.372.222z"/>
        <path fill="#FFF" d="M20.136.222l-9.941 18.445c-.11.206-.034.462.171.573.062.033.13.05.2.05h3.854c.155 0 .298-.085.372-.222L24.732.623c.111-.205.035-.462-.17-.572C24.5.017 24.43 0 24.36 0h-3.854c-.155 0-.298.085-.371.222z"/>
        <path fill="#FFF" d="M9.995.222L.055 18.667c-.112.206-.035.462.17.573.062.033.131.05.201.05h3.853c.155 0 .298-.085.372-.222L14.591.623c.112-.205.035-.462-.17-.572C14.358.017 14.29 0 14.22 0h-3.853c-.156 0-.299.085-.372.222z"/>
    </g>
</svg>
